HIERARCHY
ROOT simHips
{
  OFFSET -167.773 99.6846 75.1885
  CHANNELS 6 Xposition Yposition Zposition Zrotation Xrotation Yrotation
  JOINT simSpine
  {
    OFFSET -0.000355721 21.3001 -0.016921
    CHANNELS 3 Zrotation Xrotation Yrotation
    JOINT simLeftArm
    {
      OFFSET 13.5181 21.3012 0
      CHANNELS 3 Zrotation Xrotation Yrotation
      JOINT simLeftForeArm
      {
        OFFSET 24.5783 0 0
        CHANNELS 3 Zrotation Xrotation Yrotation
        JOINT simLeftHand
        {
          OFFSET 24.5783 0 0
          CHANNELS 3 Zrotation Xrotation Yrotation
          End Site
          {
            OFFSET 7.32568 1.52588e-05 0.0169305
          }
        }
      }
    }
    JOINT simHead
    {
      OFFSET 0 27.4458 -0.00489235
      CHANNELS 3 Zrotation Xrotation Yrotation
      End Site
      {
        OFFSET 0 0 0
      }
    }
    JOINT simRightArm
    {
      OFFSET -13.5174 21.3012 0
      CHANNELS 3 Zrotation Xrotation Yrotation
      JOINT simRightForeArm
      {
        OFFSET -24.5783 0 0
        CHANNELS 3 Zrotation Xrotation Yrotation
        JOINT simRightHand
        {
          OFFSET -24.5783 0 0
          CHANNELS 3 Zrotation Xrotation Yrotation
          End Site
          {
            OFFSET -7.32568 1.52588e-05 0.0169305
          }
        }
      }
    }
  }
  JOINT simRightUpLeg
  {
    OFFSET -8.44614 -9.41038 0.835684
    CHANNELS 3 Zrotation Xrotation Yrotation
    JOINT simRightLeg
    {
      OFFSET 0 -40.9639 0
      CHANNELS 3 Zrotation Xrotation Yrotation
      JOINT simRightFoot
      {
        OFFSET 0 -40.9639 0
        CHANNELS 3 Zrotation Xrotation Yrotation
        End Site
        {
          OFFSET 0.50614 -9.67405 14.6709
        }
      }
    }
  }
  JOINT simLeftUpLeg
  {
    OFFSET 8.44614 -9.41038 0.835684
    CHANNELS 3 Zrotation Xrotation Yrotation
    JOINT simLeftLeg
    {
      OFFSET 0 -40.9639 0
      CHANNELS 3 Zrotation Xrotation Yrotation
      JOINT simLeftFoot
      {
        OFFSET 0 -40.9639 0
        CHANNELS 3 Zrotation Xrotation Yrotation
        End Site
        {
          OFFSET -0.50614 -9.67405 14.6709
        }
      }
    }
  }
}
MOTION
Frames:	11
Frame Time:	0.0333333
-167.195 99.6949 76.0452 -0.185407 0.783688 0.26598 -0.417416 -0.161463 0.0706879 8.29353 -4.33401 1.0591 -2.21637 -0.0620298 -1.6748e-05 -2.52659 1.45697 -0.803898 -0.864681 -1.94104 -1.39936 -5.52012 -1.74884 1.08488 2.36955 0.0790625 9.1525e-05 2.26626 -1.40464 -0.106722 5.28845 0.387535 -0.202816 0.021467 -0.00269563 0.023149 -5.19527 -1.11693 -0.186994 -2.80949 -1.4275 -0.00951558 0.153076 2.65662 0.00821549 2.83663 -2.01422 -0.220416 
-167.223 99.6949 76.0222 -0.184524 0.780314 0.309082 -0.433235 -0.140373 0.00217566 8.26272 -4.30492 1.07802 -2.19528 -0.0620298 -1.6748e-05 -2.55647 1.44696 -0.862356 -0.932361 -1.95404 -1.33847 -5.46454 -1.77239 1.11931 2.3181 0.0790625 9.1525e-05 2.27701 -1.33938 -0.127184 5.31169 0.344678 -0.30158 0.0214417 0.0600504 0.023149 -5.28147 -1.0966 -0.0943916 -2.80205 -1.44569 -0.048791 0.177795 2.65662 0.00821549 2.80678 -1.98507 -0.228625 
-167.236 99.6949 76.0115 -0.17567 0.753722 0.29207 -0.415879 -0.173348 0.0131564 8.2046 -4.22995 0.976227 -2.21914 -0.0620298 -1.6748e-05 -2.57666 1.49373 -0.853642 -1.03612 -1.90243 -1.26077 -5.4115 -1.76668 1.14918 2.26177 0.0790625 9.1525e-05 2.24054 -1.25743 -0.134029 5.30735 0.37737 -0.23227 0.0258487 0.040979 0.023149 -5.2505 -1.097 -0.154463 -2.78958 -1.42758 -0.0196479 0.153787 2.65662 0.00821549 2.80657 -1.98552 -0.246521 
-167.251 99.6949 75.9856 -0.164935 0.74085 0.319118 -0.402825 -0.194822 -0.00832776 8.11075 -4.22504 0.875295 -2.20707 -0.0620298 -1.6748e-05 -2.56091 1.44604 -0.790696 -1.15171 -1.84327 -1.19428 -5.37424 -1.67387 1.17194 2.2118 0.0790625 9.1525e-05 2.25552 -1.35089 -0.10792 5.29985 0.343418 -0.260979 0.0499375 0.0982482 0.023149 -5.26963 -1.1265 -0.165631 -2.77617 -1.42636 -0.0395833 0.15442 2.65662 0.00821549 2.73807 -1.85043 -0.259244 
-167.266 99.6951 75.9748 -0.158077 0.694181 0.31133 -0.391108 -0.187177 -0.0228345 8.03867 -4.27126 0.817586 -2.15952 -0.0620298 -1.6748e-05 -2.56063 1.53483 -0.835986 -1.23098 -1.81966 -1.19412 -5.33717 -1.70152 1.24427 2.20774 0.0764525 9.1525e-05 2.24447 -1.27079 -0.135702 5.3151 0.436644 -0.305814 0.0273532 -0.000222093 0.023149 -5.2994 -1.08527 -0.103307 -2.77081 -1.38217 -0.0362399 0.154836 2.65731 0.0131303 2.73161 -1.8433 -0.267873 
-167.272 99.6952 75.9588 -0.144866 0.617801 0.302839 -0.367236 -0.158747 0.0136835 7.94693 -4.12747 0.759453 -2.05864 -0.0620298 -1.6748e-05 -2.50312 1.45025 -0.849134 -1.30049 -1.81873 -1.16171 -5.31291 -1.63078 1.20753 2.16786 0.0750516 9.1525e-05 2.2656 -1.19624 -0.114363 5.31021 0.50037 -0.249338 0.0136847 0.0290294 0.023149 -5.29838 -1.10845 -0.156181 -2.7848 -1.33652 -0.0178253 0.105825 2.70616 0.0226528 2.81015 -1.98471 -0.230873 
-167.294 99.6958 75.9328 -0.134124 0.593164 0.340302 -0.377403 -0.174671 -0.00196144 7.92015 -3.91611 0.689372 -1.98871 -0.0620298 -1.6748e-05 -2.42933 1.51917 -0.893409 -1.2716 -1.82897 -1.1759 -5.25776 -1.5609 1.16507 2.15086 0.0741452 9.1525e-05 2.18452 -1.17769 -0.082904 5.28206 0.42424 -0.220614 0.0756486 0.19979 0.0231491 -5.3178 -1.19639 -0.242021 -2.76986 -1.28961 -0.0397407 0.124346 2.62969 0.0240056 2.73254 -1.81431 -0.273058 
-167.331 99.6959 75.88 -0.125013 0.592316 0.439867 -0.401807 -0.13264 -0.116153 7.93286 -3.87839 0.668441 -1.96866 -0.0620298 -1.6748e-05 -2.45753 1.47729 -0.901185 -1.1959 -1.86811 -1.15907 -5.17428 -1.60122 1.1517 2.14319 0.0735876 9.1525e-05 2.13147 -1.21137 -0.0998431 5.32191 0.431293 -0.30765 0.0267404 0.110352 0.0156403 -5.31099 -1.12174 -0.248066 -2.76671 -1.32397 -0.274012 0.152678 2.62025 0.0246396 2.69915 -1.76851 -0.17005 
-167.353 99.6962 75.8484 -0.113414 0.564558 0.469585 -0.392993 -0.140855 -0.136733 7.90435 -3.90627 0.581329 -2.0134 -0.0620298 -1.6748e-05 -2.41536 1.52175 -0.806379 -1.21747 -1.67042 -1.1555 -5.092 -1.55897 1.08116 2.10384 0.0732329 9.15249e-05 2.2395 -1.14455 -0.0342368 5.33415 0.482931 -0.327122 0.00706388 0.0244523 0.0127158 -5.35906 -1.03133 -0.223753 -2.77969 -1.38041 -0.329246 0.135733 2.73919 0.0251538 2.74618 -1.89871 -0.0993751 
-167.382 99.6964 75.8161 -0.10701 0.534829 0.470362 -0.392954 -0.146197 -0.177105 7.85464 -3.78183 0.563716 -2.04672 -0.0620298 -1.6748e-05 -2.50644 1.5852 -0.866765 -1.19328 -1.66418 -1.23869 -5.00411 -1.32931 1.07429 2.09269 0.0729354 9.15249e-05 2.29775 -1.25709 -0.0364483 5.34847 0.500777 -0.263734 0.00369443 0.0152506 0.0111091 -5.34924 -1.0152 -0.300953 -2.75972 -1.32082 -0.0905368 0.133693 2.63438 0.0255502 2.72822 -1.84338 -0.321149 
-167.425 99.6966 75.7643 -0.107297 0.511904 0.480482 -0.38595 -0.105527 -0.249333 7.70038 -3.55478 0.576703 -2.03593 -0.0620298 -1.6748e-05 -2.52808 1.61202 -0.84991 -1.13785 -1.65894 -1.19856 -4.88738 -1.42275 1.07392 2.10713 0.0725492 9.15249e-05 2.26166 -1.04339 -0.0471789 5.37805 0.463668 -0.281075 0.00143843 0.0687023 0.00997542 -5.42161 -0.973625 -0.244414 -2.7168 -1.34333 -0.117203 0.099566 2.65651 0.0258454 2.71666 -1.81314 -0.301213 
